<svg width="20" height="21" viewBox="0 0 20 21" fill="none" xmlns="http://www.w3.org/2000/svg">
<path fill-rule="evenodd" clip-rule="evenodd" d="M10 0.25C15.5232 0.25 20 4.72676 20 10.25C20 15.7732 15.5232 20.25 10 20.25C4.47676 20.25 0 15.7732 0 10.25C0 4.72676 4.47676 0.25 10 0.25Z" fill="#F0B90B"/>
<path d="M5.49599 10.25L5.50321 12.8942L7.75 14.2163V15.7644L4.1883 13.6755V9.47676L5.49599 10.25ZM5.49599 7.60577V9.14664L4.1875 8.3726V6.83173L5.49599 6.05769L6.8109 6.83173L5.49599 7.60577ZM8.6883 6.83173L9.99679 6.05769L11.3117 6.83173L9.99679 7.60577L8.6883 6.83173Z" fill="white"/>
<path d="M6.44141 12.3462V10.7981L7.7499 11.5721V13.113L6.44141 12.3462ZM8.6882 14.7708L9.99669 15.5449L11.3116 14.7708V16.3117L9.99669 17.0857L8.6882 16.3117V14.7708ZM13.1882 6.83173L14.4967 6.05769L15.8116 6.83173V8.3726L14.4967 9.14664V7.60577L13.1882 6.83173ZM14.4967 12.8942L14.5039 10.25L15.8124 9.47596V13.6747L12.2507 15.7636V14.2155L14.4967 12.8942Z" fill="white"/>
<path d="M13.5585 12.3461L12.25 13.113V11.5721L13.5585 10.7981V12.3461Z" fill="white"/>
<path d="M13.5584 8.15384L13.5656 9.70192L11.3124 11.024V13.6747L10.0039 14.4415L8.69541 13.6747V11.024L6.44221 9.70192V8.15384L7.75631 7.37981L9.99589 8.70833L12.2491 7.37981L13.564 8.15384H13.5584ZM6.44141 5.51041L9.99669 3.41426L13.5584 5.51041L12.2499 6.28445L9.99669 4.95593L7.7499 6.28445L6.44141 5.51041Z" fill="white"/>
</svg>
