<svg width="19" height="18" viewBox="0 0 19 18" fill="none" xmlns="http://www.w3.org/2000/svg">
<path fill-rule="evenodd" clip-rule="evenodd" d="M5.79289 7.29289C6.18342 6.90237 6.81658 6.90237 7.20711 7.29289L9.5 9.58579L11.7929 7.29289C12.1834 6.90237 12.8166 6.90237 13.2071 7.29289C13.5976 7.68342 13.5976 8.31658 13.2071 8.70711L10.2071 11.7071C9.81658 12.0976 9.18342 12.0976 8.79289 11.7071L5.79289 8.70711C5.40237 8.31658 5.40237 7.68342 5.79289 7.29289Z" fill="#404E71"/>
<path fill-rule="evenodd" clip-rule="evenodd" d="M7.85719 2.62457e-07H11.1428C12.2266 -9.75112e-06 13.1007 -1.77398e-05 13.8086 0.0578183C14.5375 0.117368 15.1777 0.24318 15.77 0.544968C16.7108 1.02433 17.4757 1.78924 17.955 2.73005C18.2568 3.32234 18.3826 3.96253 18.4422 4.69138C18.5 5.39925 18.5 6.27339 18.5 7.35717V10.6428C18.5 11.7266 18.5 12.6008 18.4422 13.3086C18.3826 14.0375 18.2568 14.6777 17.955 15.27C17.4757 16.2108 16.7108 16.9757 15.77 17.455C15.1777 17.7568 14.5375 17.8826 13.8086 17.9422C13.1008 18 12.2266 18 11.1428 18H7.85717C6.77339 18 5.89925 18 5.19138 17.9422C4.46253 17.8826 3.82234 17.7568 3.23005 17.455C2.28924 16.9757 1.52433 16.2108 1.04497 15.27C0.74318 14.6777 0.617368 14.0375 0.557818 13.3086C0.499982 12.6007 0.49999 11.7266 0.5 10.6428V7.35719C0.49999 6.27341 0.499982 5.39926 0.557818 4.69138C0.617368 3.96253 0.74318 3.32234 1.04497 2.73005C1.52433 1.78924 2.28924 1.02433 3.23005 0.544968C3.82234 0.24318 4.46253 0.117368 5.19138 0.0578183C5.89926 -1.77398e-05 6.77341 -9.75112e-06 7.85719 2.62457e-07ZM5.35424 2.05118C4.74907 2.10062 4.40138 2.19279 4.13803 2.32698C3.57354 2.6146 3.1146 3.07354 2.82698 3.63803C2.69279 3.90138 2.60062 4.24907 2.55118 4.85424C2.50078 5.47108 2.5 6.26339 2.5 7.4V10.6C2.5 11.7366 2.50078 12.5289 2.55118 13.1458C2.60062 13.7509 2.69279 14.0986 2.82698 14.362C3.1146 14.9265 3.57354 15.3854 4.13803 15.673C4.40138 15.8072 4.74907 15.8994 5.35424 15.9488C5.97108 15.9992 6.76339 16 7.9 16H11.1C12.2366 16 13.0289 15.9992 13.6458 15.9488C14.2509 15.8994 14.5986 15.8072 14.862 15.673C15.4265 15.3854 15.8854 14.9265 16.173 14.362C16.3072 14.0986 16.3994 13.7509 16.4488 13.1458C16.4992 12.5289 16.5 11.7366 16.5 10.6V7.4C16.5 6.26339 16.4992 5.47108 16.4488 4.85424C16.3994 4.24907 16.3072 3.90138 16.173 3.63803C15.8854 3.07354 15.4265 2.6146 14.862 2.32698C14.5986 2.19279 14.2509 2.10062 13.6458 2.05118C13.0289 2.00078 12.2366 2 11.1 2H7.9C6.76339 2 5.97108 2.00078 5.35424 2.05118Z" fill="#404E71"/>
</svg>
