<svg width="16" height="16" viewBox="0 0 16 16" fill="none" xmlns="http://www.w3.org/2000/svg">
<path fill-rule="evenodd" clip-rule="evenodd" d="M1.3335 8.00001C1.3335 4.31811 4.31826 1.33334 8.00016 1.33334C11.6821 1.33334 14.6668 4.31811 14.6668 8.00001C14.6668 11.6819 11.6821 14.6667 8.00016 14.6667C4.31826 14.6667 1.3335 11.6819 1.3335 8.00001ZM7.8049 5.52861C7.54455 5.26826 7.12244 5.26826 6.86209 5.52861C6.60174 5.78896 6.60174 6.21107 6.86209 6.47141L8.39069 8.00001L6.86209 9.52861C6.60174 9.78896 6.60174 10.2111 6.86209 10.4714C7.12244 10.7318 7.54455 10.7318 7.8049 10.4714L9.8049 8.47142C10.0653 8.21107 10.0653 7.78896 9.8049 7.52861L7.8049 5.52861Z" fill="#404E71"/>
</svg>
