<svg width="24" height="30" viewBox="0 0 24 30" fill="none" xmlns="http://www.w3.org/2000/svg">
<path fill-rule="evenodd" clip-rule="evenodd" d="M13.1783 22.1548C12.5275 21.5039 11.4722 21.5039 10.8213 22.1548C10.1705 22.8057 10.1704 23.861 10.8213 24.5118L15.8213 29.5118C16.4722 30.1627 17.5275 30.1627 18.1783 29.5118L23.1783 24.5118C23.8292 23.861 23.8292 22.8057 23.1783 22.1548C22.5275 21.5039 21.4722 21.5039 20.8213 22.1548L18.6665 24.3096L18.6665 11.6667C18.6665 10.7462 17.9203 10 16.9998 10C16.0794 10 15.3332 10.7462 15.3332 11.6667L15.3332 24.3096L13.1783 22.1548ZM10.8213 7.84518C11.4722 8.49605 12.5275 8.49605 13.1783 7.84518C13.8292 7.1943 13.8292 6.13903 13.1783 5.48815L8.17835 0.488154C7.52747 -0.16272 6.4722 -0.16272 5.82133 0.488154L0.821325 5.48815C0.17045 6.13903 0.17045 7.1943 0.821325 7.84518C1.4722 8.49605 2.52747 8.49605 3.17835 7.84518L5.33317 5.69035L5.33317 18.3333C5.33317 19.2538 6.07936 20 6.99984 20C7.92031 20 8.6665 19.2538 8.6665 18.3333L8.6665 5.69035L10.8213 7.84518Z" fill="#404E71"/>
</svg>
